# xmcd CD database file
#
# Track frame offsets:
#	150
#	61982
#	108883
#	163843
#
# Disc length: 3213 seconds
#
# Revision: 0
# Processed by: cddbd v1.5.2PL0 Copyright (c) Steve Scherf et al.
# Submitted via: CDex 1.51
#
DISCID=2c0c8b04
DTITLE=Eric Dolphy - In Europe [CD2]
DYEAR=1961
DGENRE=Jazz
TTITLE0=Laura
TTITLE1=Woody 'N' You
TTITLE2=When Lights Are Low
TTITLE3=In the Blues (Takes 1, 2, 3)
EXTD=YEAR: 1961
EXTT0=
EXTT1=
EXTT2=
EXTT3=
PLAYORDER=
